<svg xmlns="http://www.w3.org/2000/svg" xmlns:xlink="http://www.w3.org/1999/xlink" viewBox="0 0 188.15 200.75"><defs><style>.cls-1{fill:#f1e4b2;}.cls-2{isolation:isolate;}.cls-3{clip-path:url(#clip-path);}.cls-4,.cls-7{fill:#ecc19c;}.cls-5{fill:#eb6d4a;}.cls-6{fill:#543e36;}.cls-7{opacity:0.5;mix-blend-mode:multiply;}.cls-8{fill:#c14729;}</style><clipPath id="clip-path"><circle class="cls-1" cx="94.07" cy="94.07" r="94.07" transform="translate(-38.97 94.07) rotate(-45)"/></clipPath></defs><title>user</title><g class="cls-2"><g id="Capa_2" data-name="Capa 2"><g id="OBJECTS"><circle class="cls-1" cx="94.07" cy="94.07" r="94.07" transform="translate(-38.97 94.07) rotate(-45)"/><g class="cls-3"><path class="cls-4" d="M136,52.78V84.05c0,.45,0,.9,0,1.36s0,.73,0,1.1,0,.66-.06,1,0,.48,0,.71,0,.28,0,.43a7.18,7.18,0,0,1-.09.78c0,.49-.1,1-.17,1.47,0,.12,0,.24-.05.37s-.07.49-.11.74v0c-.07.36-.13.71-.19,1.07s-.18,1-.29,1.47c0,0,0,0,0,.06a2.07,2.07,0,0,1,0,.22s0,0,0,.06c-.05.26-.11.52-.17.78,0,.11-.05.22-.09.34s-.08.37-.12.55a3,3,0,0,1-.09.32c0,.09-.05.19-.07.27-.22.84-.47,1.66-.72,2.49l-.38,1.16a.61.61,0,0,0,0,.12c-.12.35-.24.7-.37,1l-.12.32c-.12.33-.25.66-.38,1s-.32.79-.48,1.18-.3.7-.46,1c0,.06-.05.11-.07.17l-.51,1.1c-.18.38-.36.76-.56,1.14-.37.75-.77,1.5-1.17,2.23l-.55,1a60.78,60.78,0,0,1-5.26,7.65c-.25.34-.52.67-.8,1s-.77.91-1.16,1.36-.7.78-1.06,1.16q-1.48,1.59-3,3l-.64.59c-.35.31-.7.62-1.06.92s-.57.48-.85.72c-.74.61-1.48,1.19-2.23,1.74l-1,.68c-.51.37-1,.72-1.56,1.06-.29.19-.59.38-.89.55-1,.65-2.1,1.24-3.15,1.76l-.77.38-.81.37c-.34.15-.67.3-1,.43l-.41.16c-.4.16-.81.31-1.21.45s-1,.34-1.52.48-.71.2-1.06.28l-.07,0-1.05.23-.28.05c-.29.05-.57.1-.86.13s-.82.11-1.23.13a3.11,3.11,0,0,1-.43,0c-.33,0-.65,0-1,0h0c-.32,0-.64,0-1,0a2.31,2.31,0,0,1-.37,0c-.29,0-.59,0-.89-.08l-.2,0-1.15-.18-1-.21a29.61,29.61,0,0,1-5.4-1.82,39.86,39.86,0,0,1-4.72-2.49c-.79-.48-1.58-1-2.36-1.54l-1.17-.84q-1.85-1.35-3.63-2.92l-1-.91-1-.9c-.8-.77-1.58-1.58-2.34-2.41-.3-.32-.6-.65-.89-1-.83-.93-1.63-1.89-2.39-2.88-.3-.36-.57-.73-.85-1.1-1-1.38-2-2.82-2.95-4.31-.25-.4-.5-.81-.73-1.21s-.57-1-.85-1.48a57.57,57.57,0,0,1-2.79-5.75c-.13-.29-.25-.58-.35-.87s-.31-.75-.44-1.12c-.21-.54-.41-1.09-.59-1.63s-.36-1.1-.54-1.66-.31-1.07-.46-1.61-.32-1.16-.45-1.76c0-.06,0-.12,0-.18-.2-.83-.37-1.66-.53-2.5-.2-1.11-.37-2.24-.49-3.39,0-.36-.08-.71-.11-1.07s-.07-.76-.09-1.14c-.06-.68-.09-1.38-.11-2.08,0-.46,0-.91,0-1.36V52.78A41.86,41.86,0,0,1,94.08,10.93h0a42.27,42.27,0,0,1,9.27,1,40.79,40.79,0,0,1,7.84,2.62A41.87,41.87,0,0,1,136,52.41C136,52.54,136,52.66,136,52.78Z"/><path class="cls-4" d="M148.65,200.74H39.57a54.29,54.29,0,0,1,2.91-17.61c.34-1,.71-2,1.11-3h0c.4-1,.83-1.93,1.28-2.88a54.17,54.17,0,0,1,6.64-10.59c.66-.81,1.33-1.6,2-2.36.34-.39.7-.77,1.06-1.15l1.09-1.12A53.56,53.56,0,0,1,61.57,157c1-.78,2.08-1.49,3.17-2.19s2.2-1.35,3.33-2l.05,0c.44-.23.87-.49,1.3-.76a31.2,31.2,0,0,0,3.69-2.57,34.42,34.42,0,0,0,13-27l8,0,8.17,0a34.32,34.32,0,0,0,12.92,26.92,27,27,0,0,0,2.29,1.69l.23.16c.37.25.74.5,1.13.72s.86.52,1.29.75a.51.51,0,0,1,.18.09c.91.51,1.8,1,2.68,1.58.42.25.84.52,1.25.82.85.54,1.69,1.14,2.5,1.76h0c1,.77,2,1.59,3,2.43s1.94,1.73,2.85,2.65A54.26,54.26,0,0,1,148.65,200.74Z"/><path class="cls-5" d="M148.65,200.74H39.57a54.29,54.29,0,0,1,2.91-17.61c.34-1,.71-2,1.11-3h0c.39-1,.82-1.94,1.28-2.88a53.87,53.87,0,0,1,6.64-10.59c.66-.82,1.32-1.61,2-2.37.34-.39.7-.77,1.06-1.15l1.09-1.11A54.6,54.6,0,0,1,61.56,157c1-.77,2.09-1.49,3.18-2.19.57-.36,1.13-.71,1.71-1s1.08-.62,1.62-.92a0,0,0,0,1,0,0h0l1.31-.75a32.82,32.82,0,0,0,3.67-2.6l0,0a29.34,29.34,0,0,0,21,8.85h.09a29.41,29.41,0,0,0,21-8.84h0c.73.6,1.49,1.17,2.27,1.69l.24.17,1.13.72c.42.25.85.5,1.29.74a1,1,0,0,1,.18.09c.48.27,1,.54,1.45.83l1.22.75c.43.26.85.53,1.26.82.85.55,1.68,1.15,2.5,1.76h0c1,.78,2,1.6,3,2.45s1.93,1.73,2.85,2.64A54.28,54.28,0,0,1,148.65,200.74Z"/><path class="cls-6" d="M136,84.05c0,.45,0,.9,0,1.36s0,.73,0,1.1,0,.66-.06,1,0,.48,0,.71,0,.28,0,.43a7.18,7.18,0,0,1-.09.78c0,.49-.1,1-.17,1.47,0,.12,0,.24-.05.37s-.07.49-.11.74-.13.74-.19,1.1-.16.85-.26,1.27a2,2,0,0,1,0,.26c0,.07,0,.14,0,.22s0,0,0,.06a.51.51,0,0,1,0,.13c0,.22-.09.43-.15.65s-.05.22-.09.34a5.66,5.66,0,0,1-.15.59,1.27,1.27,0,0,1-.06.28c0,.09-.05.19-.07.27-.22.84-.47,1.66-.72,2.49l-.38,1.16a.61.61,0,0,0,0,.12c-.12.35-.24.7-.37,1l-.12.32c-.12.33-.25.66-.38,1s-.32.79-.48,1.18-.3.7-.46,1c0,.06-.05.11-.07.17l-.51,1.1c-.18.38-.36.76-.56,1.14-.37.75-.77,1.5-1.17,2.23l-.55,1a60.78,60.78,0,0,1-5.26,7.65c-.25.34-.52.67-.8,1s-.77.91-1.16,1.36-.7.78-1.06,1.16q-1.48,1.59-3,3l-.64.59c-.35.31-.7.62-1.06.92s-.57.48-.85.72c-.74.61-1.48,1.19-2.23,1.74l-1,.68c-.51.37-1,.72-1.56,1.06-.29.19-.59.38-.89.55-1,.65-2.1,1.24-3.15,1.76l-.77.38-.81.37c-.34.15-.67.3-1,.43l-.41.16c-.4.16-.81.31-1.21.45s-1,.34-1.52.48-.71.2-1.06.28l-.07,0-1.05.23-.28.05c-.29.05-.57.1-.86.13s-.82.11-1.23.13a3.11,3.11,0,0,1-.43,0c-.33,0-.65,0-1,0h0c-.32,0-.64,0-1,0a2.31,2.31,0,0,1-.37,0c-.29,0-.59,0-.89-.08l-.2,0-1.15-.18-1-.21a29.61,29.61,0,0,1-5.4-1.82,39.86,39.86,0,0,1-4.72-2.49c-.79-.47-1.57-1-2.36-1.54l-1.17-.84q-1.85-1.35-3.63-2.92l-1-.91-1-.9c-.8-.77-1.58-1.58-2.34-2.41-.3-.32-.6-.65-.89-1-.83-.93-1.63-1.89-2.39-2.88-.3-.36-.57-.73-.85-1.1-1-1.38-2-2.82-2.95-4.31-.25-.4-.5-.81-.73-1.21s-.57-1-.85-1.48a57.57,57.57,0,0,1-2.79-5.75c-.13-.29-.25-.58-.35-.87s-.31-.75-.44-1.12c-.21-.54-.41-1.09-.59-1.63s-.36-1.1-.54-1.66-.31-1.07-.46-1.61-.32-1.16-.45-1.76c0-.06,0-.12,0-.18-.2-.83-.37-1.66-.53-2.5-.2-1.11-.37-2.24-.49-3.39,0-.36-.08-.71-.11-1.07s-.07-.76-.09-1.14c-.06-.68-.09-1.38-.11-2.08,0-.46,0-.91,0-1.36l6.68,13.14,11.49,5L84,103.42h0l10.07.92h.06l9.42.85h0l21,1.89Z"/><path class="cls-6" d="M94.16,90.65v10.13h0v15.58h0l0,0L53.64,95.77c0-.06,0-.12,0-.18-.2-.83-.37-1.66-.53-2.5-.2-1.11-.37-2.24-.49-3.39,0-.36-.08-.71-.11-1.07s-.07-.76-.09-1.14c-.06-.68-.09-1.38-.11-2.08,0-.46,0-.91,0-1.36V71.76c0,.18,0,.35,0,.53a41.05,41.05,0,0,0,1.47,9.58,42,42,0,0,0,2.62,7.06h0c2.7,5.61,6.31,9.41,9.63,10l.62.07a37.31,37.31,0,0,0,4,.23c5.25,0,9.91-4.22,12.84-5.93l.06,0c.15-.09.31-.18.44-.27l.12-.08a20.93,20.93,0,0,1,10-2.31Z"/><path class="cls-6" d="M136,71.76V84.05a50.72,50.72,0,0,1-.82,9c-.22,1.17-.46,2.34-.75,3.49l-9.49,13.7-30.78,6.1h0l0-25.73h.09a20.81,20.81,0,0,1,10,2.32l.11.07.46.28,0,0c2.94,1.7,7.58,5.92,12.83,5.92a37.21,37.21,0,0,0,4-.22l.64-.08c3.31-.61,6.93-4.42,9.61-10h0a41.45,41.45,0,0,0,2.62-7.06A40.26,40.26,0,0,0,136,72.15C136,72,136,71.89,136,71.76Z"/><ellipse class="cls-4" cx="94.11" cy="103.95" rx="10.25" ry="3.17"/><path class="cls-6" d="M94.12,10.93h0A41.86,41.86,0,0,0,52.25,52.78V71.24s1.74-11,6.42-16.36c5.08-5.81,3.79-14.64,15.18-14.64,7.35,0,7.77,2.72,20.22,2.72h.06c12.45,0,12.86-2.72,20.21-2.72,11.39,0,10.11,8.83,15.18,14.64,4.68,5.35,6.42,16.36,6.42,16.36V52.78A41.85,41.85,0,0,0,94.12,10.93Z"/><path class="cls-7" d="M94.08,10.93V200.75H39.57a54.29,54.29,0,0,1,2.91-17.61c.34-1,.71-2,1.11-3h0c.4-1,.83-1.93,1.28-2.88a54.17,54.17,0,0,1,6.64-10.59c.66-.81,1.33-1.6,2-2.36.34-.39.7-.77,1.06-1.15l1.09-1.12A53.56,53.56,0,0,1,61.57,157c1-.78,2.08-1.49,3.17-2.19s2.2-1.36,3.33-2a.05.05,0,0,1,.05,0h0c.44-.25.87-.49,1.3-.75a30.67,30.67,0,0,0,3.67-2.59l0,0a34.53,34.53,0,0,0,11-15.34,39.86,39.86,0,0,1-4.72-2.49c-.79-.47-1.57-1-2.36-1.54l-1.17-.84q-1.85-1.35-3.63-2.92l-1-.91-1-.9c-.8-.77-1.58-1.58-2.34-2.41-.3-.32-.6-.65-.89-1-.83-.93-1.63-1.89-2.39-2.88-.3-.36-.57-.73-.85-1.1-1-1.38-2-2.82-2.95-4.31-.25-.4-.5-.81-.73-1.21s-.57-1-.85-1.48a57.57,57.57,0,0,1-2.79-5.75c-.13-.29-.25-.58-.35-.87s-.31-.75-.44-1.12c-.21-.54-.41-1.09-.59-1.63s-.36-1.1-.54-1.66-.31-1.07-.46-1.61-.32-1.16-.45-1.76c0-.06,0-.12,0-.18-.2-.83-.37-1.66-.53-2.5-.2-1.11-.37-2.24-.49-3.39,0-.36-.08-.71-.11-1.07s-.07-.76-.09-1.14c-.06-.68-.09-1.38-.11-2.08,0-.46,0-.91,0-1.36V52.78A41.86,41.86,0,0,1,94.08,10.93Z"/><path class="cls-8" d="M121.74,153.72l-1.13,1.15a37.14,37.14,0,0,1-53.08,0l-1.08-1.11c.53-.32,1.08-.62,1.62-.92a0,0,0,0,1,0,0h0l1.31-.75a32.82,32.82,0,0,0,3.67-2.6l0,0a29.34,29.34,0,0,0,21,8.85h.09a29.41,29.41,0,0,0,21-8.84h0c.73.6,1.49,1.17,2.27,1.69l.24.17,1.13.72c.42.25.85.5,1.29.74a1,1,0,0,1,.18.09C120.77,153.16,121.27,153.43,121.74,153.72Z"/></g></g></g></g></svg>